:version 1.10
:name ASF
:units
  mass 1
  length 1
  angle deg
:documentation
  ASF file generated by Kaydara
:root
  axis xyz
  order  tx ty tz rx ry rz
  position 0 0 0
  orientation 0 0 0
:bonedata
  begin
    id 1
    name RightUpLegDummy
    direction -0.65628 -0.754516 0.00165102
    length 4.76918
    axis 0 0 0 xyz
  end
  begin
    id 2
    name RightUpLeg
    direction -0.145584 -0.923362 0.355256
    length 17.9961
    axis -24.7611 -13.1006 1.78531 xyz
    dof rx ry rz
  end
  begin
    id 3
    name RightLeg
    direction 0.263379 0.172355 -0.949171
    length 13.3386
    axis 89.6202 -21.1929 12.3855 xyz
    dof rx ry rz
  end
  begin
    id 4
    name RightFoot
    direction 0.224283 -0.968777 -0.105675
    length 5.86697
    axis 56.995 -39.6905 17.3365 xyz
    dof rx ry rz
  end
  begin
    id 5
    name RightToes
    direction -0.0806345 -0.9037 0.420506
    length 4.75197
    axis 146.825 -39.7828 17.6019 xyz
    dof rx ry rz
  end
  begin
    id 6
    name SpineDummy
    direction -3.39852e-014 1 9.33296e-014
    length 8.13779
    axis 0 0 0 xyz
  end
  begin
    id 7
    name Spine
    direction -0.156609 0.733703 0.661176
    length 7.14978
    axis 41.2365 5.68757 17.0844 xyz
    dof rx ry rz
  end
  begin
    id 8
    name Spine1
    direction 0 0 0
    length 0
    axis 42.8809 47.8308 -3.36039 xyz
    dof rx ry rz
  end
  begin
    id 9
    name HEadDummy
    direction 0.546431 0.701947 0.456819
    length 3.55512
    axis 42.8809 47.8308 -3.36039 xyz
  end
  begin
    id 10
    name HEad
    direction 0.23444 0.828559 0.508457
    length 7.35827
    axis 51.1864 49.2662 27.4903 xyz
    dof rx ry rz
  end
  begin
    id 11
    name LeftShoulder1Dummy
    direction 0.431183 0.475873 -0.766568
    length 2.49352
    axis 42.8809 47.8308 -3.36039 xyz
  end
  begin
    id 12
    name LeftShoulder1
    direction 0.268187 -0.383402 -0.883786
    length 4.48604
    axis -119.517 0.106469 35.1736 xyz
    dof rx ry rz
  end
  begin
    id 13
    name LeftArm
    direction 0.380567 -0.703221 -0.600541
    length 10.1142
    axis -5.41825 36.2925 7.8293 xyz
    dof rx ry rz
  end
  begin
    id 14
    name LeftForeArm
    direction 0.541071 -0.732356 -0.413396
    length 9.39839
    axis 4.65387 33.7604 7.81644 xyz
    dof rx ry rz
  end
  begin
    id 15
    name LeftHand
    direction 0.847511 -0.389379 -0.360707
    length 3.66142
    axis 7.65593 21.1436 -24.6758 xyz
    dof rx ry rz
  end
  begin
    id 16
    name RightShoulderDummy
    direction -0.692546 0.541855 0.476208
    length 2.49352
    axis 42.8809 47.8308 -3.36039 xyz
  end
  begin
    id 17
    name RightShoulder
    direction -0.870808 -0.316653 0.376065
    length 4.48602
    axis 141.571 51.133 -100.254 xyz
    dof rx ry rz
  end
  begin
    id 18
    name RightArm
    direction 0.366897 -0.87275 0.322015
    length 10.1142
    axis 92.3258 71.2036 138.917 xyz
    dof rx ry rz
  end
  begin
    id 19
    name RightForeArm
    direction 0.702487 -0.694568 0.155197
    length 9.39835
    axis 153.863 41.5092 -176.604 xyz
    dof rx ry rz
  end
  begin
    id 20
    name RightHand
    direction 0.79502 -0.601276 0.0800636
    length 3.66142
    axis 154.247 4.59222 142.9 xyz
    dof rx ry rz
  end
  begin
    id 21
    name LeftUpLegDummy
    direction 0.65628 -0.754516 0.00165102
    length 4.76919
    axis 0 0 0 xyz
  end
  begin
    id 22
    name LeftUpLeg
    direction -0.1277 -0.689368 0.713067
    length 17.9961
    axis -48.3385 -17.8675 0.791927 xyz
    dof rx ry rz
  end
  begin
    id 23
    name LeftLeg
    direction 0.109849 -0.991246 -0.0732378
    length 13.3386
    axis -2.05791 -7.30784 1.72042 xyz
    dof rx ry rz
  end
  begin
    id 24
    name LeftFoot
    direction 0.0448355 -0.272614 0.961078
    length 5.86697
    axis -18.7733 -7.89606 10.2113 xyz
    dof rx ry rz
  end
  begin
    id 25
    name LeftToes
    direction -0.18506 0.293668 0.937823
    length 4.75197
    axis 71.2267 -7.89606 10.2113 xyz
    dof rx ry rz
  end
:hierarchy
  begin
    root RightUpLegDummy SpineDummy LeftUpLegDummy
    RightUpLegDummy RightUpLeg
    RightUpLeg RightLeg
    RightLeg RightFoot
    RightFoot RightToes
    SpineDummy Spine
    Spine Spine1
    Spine1 HEadDummy LeftShoulder1Dummy RightShoulderDummy
    HEadDummy HEad
    LeftShoulder1Dummy LeftShoulder1
    LeftShoulder1 LeftArm
    LeftArm LeftForeArm
    LeftForeArm LeftHand
    RightShoulderDummy RightShoulder
    RightShoulder RightArm
    RightArm RightForeArm
    RightForeArm RightHand
    LeftUpLegDummy LeftUpLeg
    LeftUpLeg LeftLeg
    LeftLeg LeftFoot
    LeftFoot LeftToes
  end

:SAMPLES-PER-SECOND 30
:FULLY-SPECIFIED
:DEGREES
445
root  -1.20777 29.9837 -0.705591 -75.1747 36.7931 79.5503
RightUpLeg  -8.03195 6.07252 -41.7796
RightLeg  -91.7269 -13.3139 9.91508
RightFoot  19.2318 23.6232 -46.0705
RightToes  -1.27222e-014 -6.36111e-015 6.36111e-015
Spine  -8.56551 -41.5627 -43.5014
Spine1  -44.3275 -5.69334 90.2595
HEad  -8.7357 -44.0997 5.47614
LeftShoulder1  6.36111e-015 -1.33558e-015 6.49777e-015
LeftArm  -65.6481 -38.4455 55.61
LeftForeArm  8.33139 4.75518 0.362757
LeftHand  3.32931 9.41248 -1.8669
RightShoulder  -4.77083e-015 -6.36111e-015 -3.18055e-015
RightArm  -1.27094 35.3288 -75.4537
RightForeArm  17.2781 -9.57753 3.51176
RightHand  20.0457 -11.1709 -64.367
LeftUpLeg  0.492147 13.2958 68.3073
LeftLeg  -46.0687 5.15813 -13.4924
LeftFoot  4.39949 1.46561 -4.33369
LeftToes  9.54166e-015 -1.91609e-011 -2.3878e-011
446
root  -0.811039 29.9639 -1.95161 -59.9932 32.8255 93.2873
RightUpLeg  -11.1076 6.82664 -42.1955
RightLeg  -91.1708 -13.4149 9.61201
RightFoot  21.0321 20.9158 -41.0665
RightToes  -1.27222e-014 -6.36111e-015 6.36111e-015
Spine  -7.33216 -42.1129 -44.1815
Spine1  -41.5732 -4.75748 97.2389
HEad  -7.79052 -40.4302 4.56728
LeftShoulder1  6.36111e-015 -1.33558e-015 6.49777e-015
LeftArm  -79.6363 -43.7736 55.304
LeftForeArm  6.21796 5.8616 0.68495
LeftHand  2.21535 7.72591 -4.97311
RightShoulder  -4.77083e-015 -6.36111e-015 -3.18055e-015
RightArm  0.600967 35.4979 -69.4809
RightForeArm  7.91825 -21.0167 -0.341055
RightHand  21.1915 -12.0684 -65.3362
LeftUpLeg  -1.77451 14.0226 67.739
LeftLeg  -46.4023 3.19772 -12.6089
LeftFoot  8.70653 3.81484 -10.0559
LeftToes  9.54166e-015 -1.91609e-011 -2.3878e-011
447
root  -1.04137 30.3633 -3.34148 -47.2499 24.1774 108.331
RightUpLeg  -15.6228 10.6418 -45.2376
RightLeg  -88.7175 -12.6009 2.2089
RightFoot  27.2911 11.6587 -26.3017
RightToes  -1.27222e-014 -6.36111e-015 6.36111e-015
Spine  -9.1561 -41.2844 -40.5419
Spine1  -37.5827 -6.7157 98.0602
HEad  -8.89664 -33.8834 1.80739
LeftShoulder1  6.36111e-015 -1.33558e-015 6.49777e-015
LeftArm  -80.0407 -47.2363 47.4978
LeftForeArm  0.953306 9.99108 0.933816
LeftHand  2.56843 8.92511 -5.29381
RightShoulder  -4.77083e-015 -6.36111e-015 -3.18055e-015
RightArm  -2.89855 32.3846 -62.5877
RightForeArm  2.94902 -28.0539 -1.56469
RightHand  22.5501 -12.5663 -67.5725
LeftUpLeg  1.70889 13.2967 68.3778
LeftLeg  -45.9208 1.82749 -12.1144
LeftFoot  15.2466 5.94881 -13.3569
LeftToes  9.54166e-015 -1.91609e-011 -2.3878e-011
448
root  -1.87071 31.1276 -4.52 -38.6345 11.2023 120.761
RightUpLeg  -19.0415 11.639 -49.2033
RightLeg  -89.6063 -11.3863 -5.23721
RightFoot  27.3281 0.323443 -10.9265
RightToes  -1.27222e-014 -6.36111e-015 6.36111e-015
Spine  -12.8359 -38.4704 -33.5816
Spine1  -33.9275 -9.39329 93.5637
HEad  -14.4527 -27.6929 1.3619
LeftShoulder1  6.36111e-015 -1.33558e-015 6.49777e-015
LeftArm  -71.2533 -47.5682 35.648
LeftForeArm  -5.42502 16.877 1.79299
LeftHand  3.26687 9.85839 -3.13063
RightShoulder  -4.77083e-015 -6.36111e-015 -3.18055e-015
RightArm  -9.15596 25.1196 -56.278
RightForeArm  -0.922147 -31.5566 -4.48798
RightHand  22.9926 -13.853 -65.9841
LeftUpLeg  7.16431 12.0265 68.6618
LeftLeg  -45.2236 -0.916505 -10.7482
LeftFoot  18.7761 9.00164 -18.5806
LeftToes  9.54166e-015 -1.91609e-011 -2.3878e-011
449
root  -3.37844 31.9707 -5.35551 -32.6174 -4.58226 129.556
RightUpLeg  -21.0351 10.1536 -50.0565
RightLeg  -91.9357 -11.5739 -2.91148
RightFoot  27.6811 3.71171 -15.5103
RightToes  -1.27222e-014 -6.36111e-015 6.36111e-015
Spine  -16.372 -34.0788 -26.4187
Spine1  -31.1203 -11.1591 86.2125
HEad  -20.8279 -23.6578 2.9879
LeftShoulder1  6.36111e-015 -1.33558e-015 6.49777e-015
LeftArm  -62.7547 -45.0235 25.5366
LeftForeArm  -12.8134 25.5509 2.77476
LeftHand  2.92716 8.96363 -3.24983
RightShoulder  -4.77083e-015 -6.36111e-015 -3.18055e-015
RightArm  -14.241 19.26 -51.2936
RightForeArm  -5.7714 -34.0566 -5.94716
RightHand  22.6007 -14.4589 -63.8796
LeftUpLeg  10.9324 10.7361 67.2525
LeftLeg  -44.9611 -3.32303 -8.80794
LeftFoot  19.656 12.6522 -25.4348
LeftToes  9.54166e-015 -1.91609e-011 -2.3878e-011
450
root  -5.11724 32.5906 -5.54424 -29.261 -21.9706 136.206
RightUpLeg  -21.7959 9.77293 -50.3478
RightLeg  -92.4577 -12.1369 2.80405
RightFoot  26.105 7.5453 -20.5575
RightToes  -1.27222e-014 -6.36111e-015 6.36111e-015
Spine  -18.5126 -28.1243 -20.7554
Spine1  -29.0425 -11.4972 76.1211
HEad  -25.9736 -22.2433 5.71427
LeftShoulder1  6.36111e-015 -1.33558e-015 6.49777e-015
LeftArm  -60.0503 -43.4849 21.0486
LeftForeArm  -21.2361 33.3903 0.977177
LeftHand  2.61936 8.67576 -4.4809
RightShoulder  -4.77083e-015 -6.36111e-015 -3.18055e-015
RightArm  -16.1389 16.5287 -47.8136
RightForeArm  -9.38817 -37.4801 -6.47709
RightHand  22.3071 -14.396 -63.3109
LeftUpLeg  12.9978 10.136 65.2517
LeftLeg  -44.4647 -5.14013 -7.04979
LeftFoot  20.8289 14.595 -28.51
LeftToes  9.54166e-015 -1.91609e-011 -2.3878e-011
451
root  -6.82724 33.029 -5.08662 -29.8143 -40.8105 142.255
RightUpLeg  -21.1033 10.205 -51.1502
RightLeg  -92.4344 -12.5337 5.9662
RightFoot  22.4692 8.57246 -21.8118
RightToes  -1.27222e-014 -6.36111e-015 6.36111e-015
Spine  -17.5917 -21.1593 -15.5119
Spine1  -27.6316 -11.6311 62.0784
HEad  -30.8949 -22.83 9.16935
LeftShoulder1  6.36111e-015 -1.33558e-015 6.49777e-015
LeftArm  -62.3827 -43.4829 21.087
LeftForeArm  -26.8802 35.4155 -1.7789
LeftHand  3.39096 9.97402 -2.67146
RightShoulder  -4.77083e-015 -6.36111e-015 -3.18055e-015
RightArm  -16.387 14.6254 -44.9126
RightForeArm  -12.0682 -43.5437 -7.09392
RightHand  21.8339 -15.8508 -59.4384
LeftUpLeg  14.8729 10.19 64.3066
LeftLeg  -43.4493 -8.03346 -4.64013
LeftFoot  21.48 15.6188 -30.0368
LeftToes  9.54166e-015 -1.91609e-011 -2.3878e-011
